<?xml version="1.0" encoding="utf-8"?>
<svg version="1.1" xmlns:xlink="http://www.w3.org/1999/xlink" width="32px" height="10px" viewBox="1724 256  32 10" xmlns="http://www.w3.org/2000/svg">
  <g transform="matrix(-0.838670567945426 -0.544639035015026 0.544639035015028 -0.838670567945419 3057.13600008612 1427.5649391599 )">
    <path d="M 1745.99107411784 258.804499565823  C 1746.69634502989 258.076457655806  1747.37184870186 257.320158176753  1748.01592536152 256.537459423327  L 1747.24375370933 255.902045432639  C 1746.61682879013 256.663900943772  1745.95931375893 257.400060192349  1745.27282418827 258.108714370032  L 1745.99107411784 258.804499565823  Z M 1743.01883085119 261.558507044207  C 1743.79844073307 260.910694946285  1744.55150136096 260.231582434571  1745.27616239837 259.522838148527  L 1744.57695054459 258.807923619691  C 1743.871587207 259.497794068499  1743.13858055907 260.15882183616  1742.37973166294 260.78938271903  L 1743.01883085119 261.558507044207  Z M 1739.75730853356 263.97622150292  C 1739.90605216231 263.881098805195  1740.05355672738 263.784052342132  1740.1997850676 263.68510656288  C 1740.89321442436 263.211463228486  1741.57056085857 262.71469289454  1742.23068179969 262.195633529809  L 1741.612570995 261.409542547086  C 1740.97060529503 261.914326273292  1740.31190271429 262.39745354846  1739.63757238334 262.858110877646  C 1739.49908946801 262.951793121818  1739.35940340744 263.043684430565  1739.2185490901 263.133761852802  L 1739.75730853356 263.97622150292  Z M 1736.10519011194 265.825109464282  C 1737.06197957114 265.45586768955  1737.98961444893 265.015121296596  1738.88023122064 264.506606475387  L 1738.38439298457 263.638191572447  C 1737.53735999573 264.121821392319  1736.65512044215 264.540999142394  1735.7451530341 264.892171469247  L 1736.10519011194 265.825109464282  Z M 1732.15784144255 266.908988674114  C 1733.16902835161 266.737855414953  1734.16589739724 266.490841335874  1735.13999815943 266.170040365583  L 1734.82719432245 265.220222614872  C 1733.90076276822 265.525324666978  1732.95267713362 265.760250709619  1731.99097430355 265.923009283903  L 1732.15784144255 266.908988674114  Z M 1728.067074723 267.173047482757  C 1728.28429819975 267.183207411744  1728.50163890428 267.190683360141  1728.71904708363 267.195473616576  C 1729.52919769734 267.196620682458  1730.33869960451 267.149587826734  1731.14326608748 267.054624111912  L 1731.0260488466 266.061517814257  C 1730.26426038253 266.151432400545  1729.49781670979 266.196166877283  1728.7307405507 266.195486453076  C 1728.52501330778 266.19086981235  1728.31934975333 266.183753633123  1728.1137954293 266.174139491197  L 1728.067074723 267.173047482757  Z M 1724.02516272225 266.669482608465  C 1725.02419119441 266.87319893274  1726.03418091011 267.018877293989  1727.05005745065 267.105785770898  L 1727.13529632946 266.109425226949  C 1726.15789475774 266.025808292668  1725.18615705521 265.885647305019  1724.22496545375 265.689646464773  L 1724.02516272225 266.669482608465  Z M 1720.10879636571 265.550239665293  C 1721.06460470276 265.905188466951  1722.04017043801 266.204475798735  1723.03059210669 266.446597972827  L 1723.26806287351 265.475203287386  C 1722.31515210433 265.242251167651  1721.37653461992 264.954298944315  1720.45692624861 264.612793355025  L 1720.10879636571 265.550239665293  Z M 1716.41117672045 263.84195421976  C 1717.30101874677 264.339688483364  1718.21894414252 264.785462393103  1719.16034104113 265.177036279179  L 1719.54439240422 264.253724549314  C 1718.63864965734 263.876981001821  1717.75548946146 263.448090184259  1716.89934901486 262.969206941921  L 1716.41117672045 263.84195421976  Z M 1712.95587775449 261.765217334474  C 1713.80258152894 262.312886574936  1714.66285081886 262.839292935833  1715.53587864086 263.34394261693  L 1716.03632991136 262.478177911102  C 1715.17773805965 261.98187287564  1714.33169377105 261.464170918428  1713.49899068503 260.92555767445  L 1712.95587775449 261.765217334474  Z M 1709.64477034655 259.463386626811  C 1710.45309283855 260.066266073769  1711.27636773195 260.648833973543  1712.11382274633 261.210543843061  L 1712.67085949555 260.380055998464  C 1711.84725223654 259.827634294555  1711.03759062281 259.254699458793  1710.24263416473 258.661788937876  L 1709.64477034655 259.463386626811  Z M 1706.49442749308 256.946007676544  C 1707.26077459904 257.601416702898  1708.0433945084 258.237555827172  1708.84155307751 258.853828313322  L 1709.45269851209 258.062309988967  C 1708.66773791114 257.456227889744  1707.89805903009 256.830607657617  1707.14438387316 256.186036161292  L 1706.49442749308 256.946007676544  Z M 1748.64927569741 255.746272695642  C 1749.27199584052 254.946477906031  1749.86207735134 254.121797408231  1750.41807034743 253.274257515116  L 1749.58192965257 252.725742484884  C 1749.04074273184 253.55071241827  1748.46637507242 254.353431701293  1747.86023794642 255.131927981725  L 1748.64927569741 255.746272695642  Z M 1711.69482795053 252.700055153946  L 1703 253  L 1702.87570240751 261.699112029886  L 1711.69482795053 252.700055153946  Z " fill-rule="nonzero" fill="#6c6c6c" stroke="none" />
  </g>
</svg>