<?xml version="1.0" encoding="utf-8"?>
<svg version="1.1" xmlns:xlink="http://www.w3.org/1999/xlink" width="34px" height="10px" viewBox="1698 256  34 10" xmlns="http://www.w3.org/2000/svg">
  <g transform="matrix(-0.874619707139388 0.484809620246336 -0.484809620246345 -0.874619707139396 3341.50810862835 -342.172755159084 )">
    <path d="M 1745.98870369226 258.801123946843  C 1746.69016471885 258.070442651485  1747.36338460385 257.31316464411  1748.00688325693 256.530954818881  L 1747.23462651548 255.895644245003  C 1746.6073487282 256.658136669825  1745.95109890111 257.39632574069  1745.26731981546 258.108588530928  L 1745.98870369226 258.801123946843  Z M 1743.0389947432 261.575296464718  C 1743.81128645005 260.919927677898  1744.55819537167 260.235221860175  1745.27807941058 259.522684353987  L 1744.57460845567 258.811960345948  C 1743.87287075216 259.506536703016  1743.14478939036 260.173982933434  1742.3919650749 260.812831640389  L 1743.0389947432 261.575296464718  Z M 1739.81961290297 264.035376563106  C 1739.85203907796 264.013350322249  1739.88440198793 263.991231088695  1739.91670123327 263.969019135581  C 1740.71851523231 263.415192306232  1741.4996504808 262.832009577315  1742.25851728877 262.220657785215  L 1741.63116135248 261.441925142261  C 1740.89169140144 262.037650604257  1740.13052996441 262.605937025552  1739.34922496174 263.145628722133  C 1739.3187806084 263.166562735554  1739.28827679934 263.187410150709  1739.25771390443 263.20817071482  L 1739.81961290297 264.035376563106  Z M 1736.22092949127 265.985699858212  C 1737.16681591308 265.589558606037  1738.0816334786 265.122977140043  1738.95767258624 264.589887563588  L 1738.43783352362 263.735623348622  C 1737.60454232789 264.242699855509  1736.73436493922 264.686513635413  1735.83463475527 265.063324459069  L 1736.22092949127 265.985699858212  Z M 1732.3064286786 267.181930037012  C 1733.31217520154 266.981672836824  1734.30147164519 266.706205980043  1735.26598073911 266.35785095655  L 1734.92628445377 265.417315771813  C 1734.00884032467 265.748672182199  1733.06781838938 266.010697135732  1732.11114908615 266.201182423824  L 1732.3064286786 267.181930037012  Z M 1728.22102774705 267.573639308986  C 1728.26035622921 267.574665539404  1728.29968705015 267.575600090947  1728.33901988932 267.576442955999  C 1729.32887837046 267.574777310317  1730.31731542254 267.501395756553  1731.29656831243 267.356874599913  L 1731.15056668211 266.367590250525  C 1730.22290423436 266.504497530866  1729.28657205415 266.574289187704  1728.34886385149 266.576421567711  C 1728.31494513127 266.57567855717  1728.28102800324 266.574864559153  1728.24711269023 266.573979579008  L 1728.22102774705 267.573639308986  Z M 1724.16802338727 267.139609339499  C 1725.17063994179 267.329601590153  1726.18382696148 267.458797979945  1727.20203844422 267.526491311253  L 1727.26837459002 266.528693979245  C 1726.29038358514 266.46367460927  1725.31721857148 266.339581619532  1724.35420647794 266.157094272565  L 1724.16802338727 267.139609339499  Z M 1720.23721467396 266.060735290274  C 1721.19634260768 266.409175554129  1722.17566116674 266.699304497643  1723.16980973886 266.929534007568  L 1723.39542337085 265.955317148207  C 1722.44054476505 265.734181958141  1721.49991037041 265.455513428251  1720.57866904914 265.120836939561  L 1720.23721467396 266.060735290274  Z M 1716.53050922354 264.364987355435  C 1717.42128280303 264.862842194502  1718.3413437189 265.306381995507  1719.28565572446 265.693178901974  L 1719.66469772884 264.767799434448  C 1718.75768709019 264.396281432882  1717.87396959641 263.970261943766  1717.01838255689 263.492072920566  L 1716.53050922354 264.364987355435  Z M 1713.09368905158 262.245176374546  C 1713.93338117016 262.804096085659  1714.78742466336 263.341148993298  1715.65495850697 263.855793654833  L 1716.16516477672 262.995741585297  C 1715.31249811076 262.489916537739  1714.47309060719 261.962067260653  1713.6477885346 261.41272591781  L 1713.09368905158 262.245176374546  Z M 1709.81503818471 259.895340988064  C 1710.61411018109 260.510936668734  1711.42900996347 261.105709279541  1712.25891597128 261.679059186367  L 1712.82732120131 260.856310443141  C 1712.01163753207 260.29278619901  1711.21070292227 259.708206377953  1710.42532485312 259.103160337988  L 1709.81503818471 259.895340988064  Z M 1706.70656305835 257.324609528107  C 1707.46119644145 257.993939457642  1708.23305838634 258.643589557242  1709.02137072209 259.272904866738  L 1709.64525869869 258.49139108397  C 1708.87045589877 257.872860532413  1708.11182157462 257.234343673917  1707.37012056142 256.576484244404  L 1706.70656305835 257.324609528107  Z M 1748.64025060563 255.740713025207  C 1749.26357266066 254.942331948956  1749.85608945291 254.12037158195  1750.41649831974 253.276639024098  L 1749.58350168026 252.723360975902  C 1749.03721920978 253.545825311157  1748.4596381681 254.34706627379  1747.85202838124 255.125322316001  L 1748.64025060563 255.740713025207  Z M 1711.69978986476 252.939532579003  L 1703 253  L 1702.63626783494 261.692393163686  L 1711.69978986476 252.939532579003  Z " fill-rule="nonzero" fill="#6c6c6c" stroke="none" />
  </g>
</svg>