<?xml version="1.0" encoding="utf-8"?>
<svg version="1.1" xmlns:xlink="http://www.w3.org/1999/xlink" width="40px" height="10px" viewBox="1558 208  40 10" xmlns="http://www.w3.org/2000/svg">
  <g transform="matrix(0.559192903470735 -0.829037572555035 0.829037572555052 0.559192903470741 519.008595368953 1402.11320105258 )">
    <path d="M 1539.99168090778 218.2074698666  C 1539.33521241484 218.968857207912  1538.69088139395 219.740625721594  1538.05893175038 220.522483262145  L 1538.83665441215 221.151090819671  C 1539.46194632577 220.377470322081  1540.09948917615 219.613832561216  1540.74904162761 218.860466604766  L 1539.99168090778 218.2074698666  Z M 1542.68121418436 215.218507270397  C 1541.99308888815 215.951409134524  1541.31665051704 216.695196895434  1540.65215513024 217.449588999485  L 1541.40255760735 218.110570181027  C 1542.06005238756 217.364125765458  1542.72936433009 216.628173973916  1543.41024007337 215.902993393818  L 1542.68121418436 215.218507270397  Z M 1545.49492103002 212.346131871179  C 1544.77637373285 213.049233106751  1544.06904184232 213.763705429392  1543.37319311207 214.48927838254  L 1544.09492884928 215.181447094367  C 1544.7834466585 214.463518213545  1545.48332665036 213.756573015608  1546.19430389206 213.060879107823  L 1545.49492103002 212.346131871179  Z M 1548.42775240533 209.59549798581  C 1547.6800725001 210.267536917015  1546.94311635764 210.951411720802  1546.21716294552 211.646863522998  L 1546.90893682846 212.368977707104  C 1547.62724216003 211.680852644212  1548.35643430575 211.004182613472  1549.096237237 210.339223761771  L 1548.42775240533 209.59549798581  Z M 1551.47444550856 206.971541472819  C 1550.69897466502 207.611312163417  1549.93371669715 208.263362273295  1549.17896128594 208.927444975211  L 1549.83953196509 209.678208838115  C 1550.5863358603 209.021122395062  1551.3435316654 208.375941778004  1552.11083275125 207.742911213825  L 1551.47444550856 206.971541472819  Z M 1554.72703710746 204.549944331819  C 1554.02501426621 205.003840546728  1553.34155845822 205.485828909143  1552.67833153749 205.994737442351  C 1552.53631926551 206.108052132215  1552.39463261972 206.22177431464  1552.25327335199 206.335902583533  L 1552.88145547026 207.113968921511  C 1553.01885091348 207.003040898606  1553.15655893019 206.892500588208  1553.29457787745 206.782349309142  C 1553.93415853384 206.291903224251  1554.5931592233 205.827315652284  1555.26998998512 205.389707496434  L 1554.72703710746 204.549944331819  Z M 1558.27513217885 202.571526943701  C 1557.35689290083 203.007601534089  1556.46056240178 203.488387397085  1555.58936197317 204.012156652853  L 1556.10461631027 204.869193972982  C 1556.9478331084 204.362248590151  1557.81537277969 203.896905940325  1558.70411750307 203.474838402505  L 1558.27513217885 202.571526943701  Z M 1562.10080728589 201.121238363747  C 1561.42297147716 201.292430237353  1560.75762286041 201.509730026765  1560.10940862645 201.7716199809  C 1559.80433956142 201.893143511147  1559.50121231695 202.019486193182  1559.20014070198 202.15060059171  L 1559.59941403817 203.067432529969  C 1559.8915678167 202.940201781382  1560.18572144228 202.817613392455  1560.48176390378 202.699713627022  C 1561.08845718586 202.454479808469  1561.71121440607 202.251032040611  1562.34567512261 202.090794830663  L 1562.10080728589 201.121238363747  Z M 1566.19684544524 200.657632857632  C 1565.16254567667 200.634900582694  1564.12859720118 200.716788721568  1563.110770269 200.902048279286  L 1563.28984294662 201.885884127449  C 1564.241362414 201.712693509167  1565.20795316888 201.636140063956  1566.17487233145 201.657391419621  L 1566.19684544524 200.657632857632  Z M 1570.26991372053 201.463582376184  C 1569.29565717478 201.087121942296  1568.27684122318 200.838123683265  1567.23876982102 200.722771876835  L 1567.12832832714 201.716654503923  C 1568.08078474788 201.822492665393  1569.01557381214 202.050954782812  1569.90947850937 202.396366626995  L 1570.26991372053 201.463582376184  Z M 1573.82643306624 203.577407975393  C 1573.50338779415 203.316408266159  1573.17198510835 203.065925601131  1572.83274479325 202.826352846736  C 1572.32204817278 202.470401542993  1571.7846975328 202.154308304393  1571.22545911703 201.880876844752  L 1570.78621526017 202.779244717175  C 1571.29841236408 203.029676014092  1571.79060005142 203.319111274528  1572.25842823181 203.644992389908  C 1572.57916874064 203.871582445263  1572.89251613464 204.108460413542  1573.19798153342 204.355256720912  L 1573.82643306624 203.577407975393  Z M 1576.72250823027 206.477958878177  C 1576.07819767028 205.67795697927  1575.37091991766 204.930781609841  1574.60744312448 204.243582714146  L 1573.93844086109 204.986843080086  C 1574.66227726627 205.638362003443  1575.33283253459 206.346743369158  1575.94368992244 207.10520846438  L 1576.72250823027 206.477958878177  Z M 1578.94135931221 209.900154792819  C 1578.60794292042 209.302241710637  1578.26435209988 208.710059248902  1577.91073677821 208.123865809465  C 1577.72935461437 207.84247786736  1577.54066659077 207.565866974391  1577.34486505093 207.294315100303  L 1576.53373342845 207.879178751946  C 1576.71649270282 208.132642659854  1576.89271563323 208.390756105456  1577.0622281041 208.653264061904  C 1577.40723781496 209.225520103267  1577.74253436261 209.803576235888  1578.06797360691 210.387183960077  L 1578.94135931221 209.900154792819  Z M 1580.78635480849 213.486102756053  C 1580.35528742756 212.574451700232  1579.9013821844 211.673775435575  1579.42506877086 210.784926592091  L 1578.54364840853 211.257259255432  C 1579.01205001706 212.131343873244  1579.45841566618 213.017059452831  1579.88232280143 213.913567526781  L 1580.78635480849 213.486102756053  Z M 1582.3871377064 217.187524819266  C 1582.01807097008 216.249059860614  1581.62548286557 215.320016113693  1581.20974503852 214.401273062763  L 1580.29868030712 214.813536395099  C 1580.70751252008 215.717018662562  1581.09357953901 216.63063052628  1581.45651589149 217.553507110674  L 1582.3871377064 217.187524819266  Z M 1583.73652511196 220.987812282866  C 1583.43111506446 220.026744419829  1583.10160568585 219.073501915062  1582.74830890795 218.128987160701  L 1581.81168785801 218.479331289815  C 1582.159116199 219.408157179771  1582.48315226135 220.345565847819  1582.78348929459 221.290669891002  L 1583.73652511196 220.987812282866  Z M 1584.34864305907 223.03977266311  C 1584.24713075933 222.675983126856  1584.14219731666 222.313156911826  1584.03385666899 221.951342210977  L 1583.07588202514 222.238195103123  C 1583.36034754388 223.188196868711  1583.62089866318 224.145196082332  1583.85728873092 225.108286795529  L 1584.34864305907 223.03977266311  Z M 1537.43114741718 221.307656133727  C 1536.80751372349 222.096162685266  1536.19644626877 222.894527056315  1535.59817636668 223.702447033781  L 1536.40182363332 224.297552966219  C 1536.99379062902 223.498144605275  1537.59842035229 222.708191180317  1538.21548392642 221.927991720544  L 1537.43114741718 221.307656133727  Z M 1577.5158735185 223.564027636594  L 1585 228  L 1589.79556001308 220.741032844755  L 1577.5158735185 223.564027636594  Z " fill-rule="nonzero" fill="#6c6c6c" stroke="none" />
  </g>
</svg>