<?xml version="1.0" encoding="utf-8"?>
<svg version="1.1" xmlns:xlink="http://www.w3.org/1999/xlink" width="34px" height="10px" viewBox="1722 206  34 10" xmlns="http://www.w3.org/2000/svg">
  <g transform="matrix(0.866025403784439 -0.499999999999998 0.499999999999998 0.866025403784436 127.481822818861 897.76863980148 )">
    <path d="M 1706.64098830943 216.968540301223  C 1706.00712408266 217.754033932539  1705.39525970374 218.557029060172  1704.80610681935 219.376591737229  L 1705.61807889279 219.960288021234  C 1706.19639403342 219.155801584173  1706.79700288 218.367577928692  1707.41920687689 217.59653382129  L 1706.64098830943 216.968540301223  Z M 1709.2905596437 213.923754454465  C 1708.60016154876 214.660052338009  1707.93040410858 215.415435793299  1707.28206630409 216.189026249593  L 1708.04849194104 216.831359296401  C 1708.68490326741 216.071999399532  1709.34234020521 215.330511577339  1710.02003810325 214.607758238847  L 1709.2905596437 213.923754454465  Z M 1712.15874082948 211.083950624342  C 1711.41561485695 211.766993735554  1710.69165655941 212.470601279999  1709.98770795762 213.193954906422  L 1710.70436204683 213.891383695924  C 1711.39536118377 213.181336498871  1712.10600192875 212.490672145345  1712.83545775032 211.820193932661  L 1712.15874082948 211.083950624342  Z M 1715.25816574954 208.470920305637  C 1714.79036296816 208.813180482287  1714.33648205958 209.174073841954  1713.89761832436 209.552729480632  C 1713.56436719418 209.833804535885  1713.23450930778 210.118878260722  1712.9081162598 210.407888780758  L 1713.57104806799 211.15656856391  C 1713.89284638066 210.87162653383  1714.21807573228 210.590582999525  1714.54666491042 210.313499498468  C 1714.96658281553 209.950993144567  1715.400925221 209.605539905753  1715.84863693156 209.277979029151  L 1715.25816574954 208.470920305637  Z M 1718.7707675456 206.378892922797  C 1717.84543016967 206.817557588372  1716.95235390123 207.321267931498  1716.09825404177 207.886236406882  L 1716.64995477565 208.720278552243  C 1717.46463754691 208.181383623153  1718.31649794855 207.700919736285  1719.19913059322 207.282499640033  L 1718.7707675456 206.378892922797  Z M 1722.61380961211 204.983909903803  C 1721.62254490984 205.240951219838  1720.65074890474 205.567940295343  1719.70572881502 205.962418403888  L 1720.09094298442 206.885245605314  C 1720.9923499769 206.508972836843  1721.91929716435 206.197074452534  1722.86481455995 205.951895707501  L 1722.61380961211 204.983909903803  Z M 1726.6724556934 204.368368391017  C 1726.36529891355 204.37612191981  1726.05835993814 204.390907623037  1725.75188009872 204.412713875402  C 1725.03285097392 204.489495604195  1724.31811613032 204.602222536838  1723.61035871176 204.750471491811  L 1723.81537247564 205.729230581996  C 1724.48469028307 205.58903330127  1725.16055366404 205.482140601415  1725.84046857912 205.408946932874  C 1726.12586742504 205.388905439502  1726.41168000184 205.375269677836  1726.69769055778 205.368049941122  L 1726.6724556934 204.368368391017  Z M 1730.75523150529 204.681962333494  C 1729.7455696046 204.499742010532  1728.72345307819 204.394986207428  1727.6978187669 204.368610852959  L 1727.67211112703 205.368280356971  C 1728.64678945831 205.393345320378  1729.61812477673 205.492896603167  1730.57762424521 205.666063782108  L 1730.75523150529 204.681962333494  Z M 1734.69005252253 205.815356816129  C 1733.73816294195 205.432567544868  1732.75839886174 205.12311913404  1731.75932681556 204.889717235223  L 1731.53183368486 205.863496920514  C 1732.48126942827 206.085302851492  1733.41235647191 206.379377120815  1734.31695388812 206.743148500185  L 1734.69005252253 205.815356816129  Z M 1738.30878071177 207.712130223711  C 1738.20245199669 207.644431323456  1738.09585758021 207.57715064365  1737.98899993286 207.510289743646  C 1737.2326764476 207.028838308163  1736.44502990211 206.598458430577  1735.6313229072 206.222025666951  L 1735.21145969563 207.129613064156  C 1735.98590787026 207.48788412301  1736.73551415188 207.897576468479  1737.4552549844 208.355944509266  C 1737.56100290522 208.422098822478  1737.66648761888 208.488672945491  1737.77170662863 208.555665302544  L 1738.30878071177 207.712130223711  Z M 1741.62319475542 210.023610148058  C 1740.81929201845 209.411215154496  1739.99628964824 208.824306792754  1739.15541309568 208.263758969639  L 1738.60073793521 209.095825953932  C 1739.42413307137 209.644720259212  1740.23002562078 210.219427080281  1741.01721560908 210.819090678437  L 1741.62319475542 210.023610148058  Z M 1744.7319049159 212.605121533175  C 1743.98223876841 211.927413700884  1743.21140122056 211.273499485352  1742.4205400498 210.644352565127  L 1741.79798448086 211.426928161207  C 1742.5724040308 212.042995421581  1743.32721623925 212.683315077184  1744.06129719051 213.346933691775  L 1744.7319049159 212.605121533175  Z M 1747.11871615733 214.917590679366  C 1746.58371130496 214.362155909631  1746.0354261249 213.819667835859  1745.47433613751 213.290596950675  L 1744.7882936265 214.01815840724  C 1745.50827239733 214.697050945267  1746.20667744383 215.398464605237  1746.88246884061 216.121354981908  L 1747.11871615733 214.917590679366  Z M 1704.22463324527 220.20152302805  C 1703.65079722033 221.031882178831  1703.10019895668 221.878062269157  1702.57347884368 222.739079124611  L 1703.42652115632 223.260920875389  C 1703.94355200569 222.415742828997  1704.48402175593 221.58512861847  1705.04730179794 220.770044313888  L 1704.22463324527 220.20152302805  Z M 1741.32192255382 218.382770838224  L 1750 219  L 1751.03956441282 210.362332153203  L 1741.32192255382 218.382770838224  Z " fill-rule="nonzero" fill="#6c6c6c" stroke="none" />
  </g>
</svg>