<?xml version="1.0" encoding="utf-8"?>
<svg version="1.1" xmlns:xlink="http://www.w3.org/1999/xlink" width="38px" height="10px" viewBox="1554 258  38 10" xmlns="http://www.w3.org/2000/svg">
  <g transform="matrix(-0.84804809615643 -0.529919264233209 0.529919264233198 -0.848048096156432 2767.61088876073 1319.59965192798 )">
    <path d="M 1580.78205970355 258.643126024849  C 1581.49037980211 257.924027759385  1582.17849678983 257.185305028296  1582.84560733391 256.427820243364  L 1582.0951513036 255.766899864971  C 1581.44033533058 256.510424519013  1580.76490005398 257.235532896094  1580.06963400149 257.941378478325  L 1580.78205970355 258.643126024849  Z M 1577.844625153 261.411331269259  C 1578.60443995077 260.746875739878  1579.34556632472 260.061348234928  1580.06713905698 259.355549064146  L 1579.36788904638 258.640671856043  C 1578.65961460074 259.333463440399  1577.93214687894 260.00635695733  1577.18633515324 260.658566846475  L 1577.844625153 261.411331269259  Z M 1574.70954214589 263.953522558757  C 1575.51664728674 263.347386460979  1576.30668210127 262.718847477268  1577.07872427411 262.068639386893  L 1576.43454951036 261.303761047711  C 1575.67673575504 261.941986072252  1574.90126095497 262.558941342787  1574.10903042762 263.153906603303  L 1574.70954214589 263.953522558757  Z M 1571.37604979549 266.251806969451  C 1571.7724029858 266.012471978586  1572.16155999103 265.761417268583  1572.54300605856 265.498974918953  C 1572.99908314037 265.190232209643  1573.450433117 264.874563523336  1573.89689906746 264.552078608668  L 1573.31136402458 263.741431513093  C 1572.8720997292 264.058714631028  1572.42801899272 264.369275716837  1571.97927693288 264.673006291284  C 1571.61315592288 264.924995120563  1571.2396104212 265.166022800667  1570.85913732188 265.395768714099  L 1571.37604979549 266.251806969451  Z M 1567.71067238459 268.048851419894  C 1568.66429022529 267.680693852683  1569.59273975519 267.250398716834  1570.49004514273 266.760735544962  L 1570.01102423435 265.882932053662  C 1569.15209370807 266.351653908848  1568.26335097409 266.763546707691  1567.35051629689 267.115959361565  L 1567.71067238459 268.048851419894  Z M 1563.78861856717 269.181041410323  C 1564.79173226227 268.984343939352  1565.78086792681 268.722078671665  1566.74965913167 268.395933639851  L 1566.43060248544 267.448197992904  C 1565.50324335999 267.760394852201  1564.55640984188 268.011443879129  1563.59619608855 268.199729232816  L 1563.78861856717 269.181041410323  Z M 1559.72942890216 269.613868841003  C 1560.75146447758 269.594626622566  1561.77113834007 269.508384824901  1562.7818875058 269.355698530908  L 1562.63251967206 268.366916830914  C 1561.66499699259 268.513073223906  1560.68893129689 268.595626737664  1559.71060489112 268.614046028396  L 1559.72942890216 269.613868841003  Z M 1555.65054355113 269.196913956228  C 1556.65455513458 269.393169670836  1557.6707318233 269.521039622499  1558.69206494267 269.579641879071  L 1558.74934892391 268.58128395453  C 1557.77319958034 268.525274261709  1556.80197854694 268.403061276533  1555.84238443458 268.215487914471  L 1555.65054355113 269.196913956228  Z M 1551.72872275823 268.054220288977  C 1552.6810182054 268.427970133806  1553.65758796466 268.736640334102  1554.65169653442 268.978101959898  L 1554.88772640852 268.006356160561  C 1553.93759720053 267.775576796761  1553.00423088609 267.480562165705  1552.09406498821 267.123347013501  L 1551.72872275823 268.054220288977  Z M 1548.0766003448 266.224348974904  C 1548.94607930583 266.763386915612  1549.85114902801 267.242776720715  1550.78556715283 267.65921198966  L 1551.1926345855 266.745813880807  C 1550.29955511725 266.347801707593  1549.43452567835 265.889620106814  1548.60351246536 265.374429203867  L 1548.0766003448 266.224348974904  Z M 1544.77436426853 263.877310616506  C 1545.49321763157 264.436247008464  1546.22686318549 264.975894709124  1546.97451704666 265.495677117158  C 1547.05594784347 265.55300631223  1547.13775661728 265.609796737248  1547.21993800886 265.666044671914  L 1547.78474887001 264.84082428248  C 1547.7053952592 264.786511783872  1547.62640515465 264.731670079565  1547.54778383791 264.676302836479  C 1546.81389723368 264.166156220693  1546.09377468395 263.636488538782  1545.38818733317 263.087866986276  L 1544.77436426853 263.877310616506  Z M 1541.68656258026 261.274552696618  C 1542.4324819364 261.955425016389  1543.19839625192 262.614063804887  1543.98329890952 263.249603433706  L 1544.61258221668 262.47242744377  C 1543.84301936039 261.849308529215  1543.09207374617 261.203541895062  1542.36073231839 260.535976252248  L 1541.68656258026 261.274552696618  Z M 1538.81364139322 258.436385698588  C 1539.50354136841 259.173963373103  1540.21512744638 259.890953642261  1540.94746441175 260.586414188129  L 1541.63607876789 259.861286427996  C 1540.91805428246 259.179417665125  1540.22037513799 258.476439946656  1539.54395827238 257.75327717426  L 1538.81364139322 258.436385698588  Z M 1537.70014721202 257.206568406505  C 1537.84277474946 257.369322801455  1537.98643336939 257.531170726484  1538.13111439931 257.692102411027  L 1538.87477029367 257.023539840447  C 1538.2127568912 256.287168720433  1537.57269019353 255.531358900541  1536.95541142036 254.757103718033  L 1537.70014721202 257.206568406505  Z M 1583.50559180914 255.664224401147  C 1584.15849779296 254.894462455012  1584.78979777071 254.106632143138  1585.39875473983 253.301653207277  L 1584.60124526017 252.698346792723  C 1584.0035111158 253.488490300159  1583.3838457352 254.261801225651  1582.74297253828 255.017376777899  L 1583.50559180914 255.664224401147  Z M 1543.64379749884 253.98730177713  L 1535 253  L 1533.59247420899 261.585387070344  L 1543.64379749884 253.98730177713  Z " fill-rule="nonzero" fill="#6c6c6c" stroke="none" />
  </g>
</svg>