<?xml version="1.0" encoding="utf-8"?>
<svg version="1.1" xmlns:xlink="http://www.w3.org/1999/xlink" width="450px" height="170px" xmlns="http://www.w3.org/2000/svg">
  <g transform="matrix(1 0 0 1 -970 -230 )">
    <path d="M 970 230  L 1420 230  L 1420 400  L 970 400  L 970 230  " fill-rule="nonzero" fill="#cccccc" stroke="none" />
    <path d="M 982 242  L 1408 242  L 1408 388  L 982 388  L 982 242  " fill-rule="nonzero" fill="#ffffff" stroke="none" />
    <path d="M 1216.75 281  C 1209.61 281  1204 275.39  1204 268.25  C 1204 261.11  1209.61 255.5  1216.75 255.5  C 1223.89 255.5  1229.5 261.11  1229.5 268.25  C 1229.5 275.39  1223.89 281  1216.75 281  " fill-rule="nonzero" fill="#cccccc" stroke="none" />
    <path d="M 987 384  L 987 308.65  L 1091.25 274.4  L 1237.2 352.946666666667  L 1320.6 294.95  L 1404 352.946666666667  L 1404 384  L 987 384  " fill-rule="nonzero" fill="#169bd5" stroke="none" />
  </g>
</svg>