<?xml version="1.0" encoding="utf-8"?>
<svg version="1.1" xmlns:xlink="http://www.w3.org/1999/xlink" width="170px" height="96px" xmlns="http://www.w3.org/2000/svg">
  <g transform="matrix(1 0 0 1 -1218 -450 )">
    <path d="M 1218 450  L 1388 450  L 1388 546  L 1218 546  L 1218 450  " fill-rule="nonzero" fill="#cccccc" stroke="none" />
    <path d="M 1225 457  L 1381 457  L 1381 539  L 1225 539  L 1225 457  " fill-rule="nonzero" fill="#ffffff" stroke="none" />
    <path d="M 1313.6 478.8  C 1309.568 478.8  1306.4 475.632  1306.4 471.6  C 1306.4 467.568  1309.568 464.4  1313.6 464.4  C 1317.632 464.4  1320.8 467.568  1320.8 471.6  C 1320.8 475.632  1317.632 478.8  1313.6 478.8  " fill-rule="nonzero" fill="#cccccc" stroke="none" />
    <path d="M 1228 537  L 1228 494.65  L 1265.75 475.4  L 1318.6 510.910588235294  L 1348.8 486.95  L 1379 510.910588235294  L 1379 537  L 1228 537  " fill-rule="nonzero" fill="#169bd5" stroke="none" />
  </g>
</svg>