<?xml version="1.0" encoding="utf-8"?>
<svg version="1.1" xmlns:xlink="http://www.w3.org/1999/xlink" width="44px" height="10px" viewBox="3448 1616  44 10" xmlns="http://www.w3.org/2000/svg">
  <g transform="matrix(0.798635510047288 0.60181502315206 -0.601815023152046 0.798635510047304 1674.27693266538 -1761.88629212433 )">
    <path d="M 3459.99168090778 1628.2074698666  C 3459.33521241484 1628.96885720792  3458.69088139396 1629.74062572159  3458.05893175038 1630.52248326214  L 3458.83665441215 1631.15109081967  C 3459.46194632578 1630.37747032207  3460.09948917615 1629.61383256122  3460.74904162761 1628.86046660477  L 3459.99168090778 1628.2074698666  Z M 3462.68121418436 1625.2185072704  C 3461.99308888815 1625.95140913452  3461.31665051704 1626.69519689544  3460.65215513024 1627.44958899949  L 3461.40255760735 1628.11057018103  C 3462.06005238756 1627.36412576546  3462.72936433009 1626.62817397391  3463.41024007337 1625.90299339382  L 3462.68121418436 1625.2185072704  Z M 3465.49492103002 1622.34613187118  C 3464.77637373285 1623.04923310675  3464.06904184232 1623.76370542939  3463.37319311207 1624.48927838254  L 3464.09492884928 1625.18144709437  C 3464.78344665851 1624.46351821354  3465.48332665036 1623.75657301561  3466.19430389206 1623.06087910782  L 3465.49492103002 1622.34613187118  Z M 3468.42775240533 1619.59549798581  C 3467.6800725001 1620.26753691701  3466.94311635764 1620.9514117208  3466.21716294552 1621.646863523  L 3466.90893682846 1622.3689777071  C 3467.62724216003 1621.68085264421  3468.35643430575 1621.00418261347  3469.096237237 1620.33922376177  L 3468.42775240533 1619.59549798581  Z M 3471.47444550856 1616.97154147282  C 3470.69897466502 1617.61131216341  3469.93371669715 1618.2633622733  3469.17896128594 1618.92744497521  L 3469.83953196509 1619.67820883811  C 3470.5863358603 1619.02112239506  3471.3435316654 1618.37594177801  3472.11083275125 1617.74291121382  L 3471.47444550856 1616.97154147282  Z M 3474.72703710746 1614.54994433182  C 3474.02501426621 1615.00384054673  3473.34155845821 1615.48582890915  3472.67833153749 1615.99473744236  C 3472.53631926548 1616.10805213224  3472.39463261975 1616.22177431462  3472.25327335199 1616.33590258353  L 3472.88145547026 1617.11396892151  C 3473.01885091346 1617.00304089862  3473.1565589302 1616.8925005882  3473.29457787745 1616.78234930915  C 3473.93415853384 1616.29190322425  3474.59315922329 1615.82731565229  3475.26998998512 1615.38970749643  L 3474.72703710746 1614.54994433182  Z M 3478.27513217885 1612.5715269437  C 3477.35689290083 1613.00760153409  3476.46056240178 1613.48838739709  3475.58936197317 1614.01215665285  L 3476.10461631027 1614.86919397298  C 3476.9478331084 1614.36224859015  3477.81537277969 1613.89690594033  3478.70411750307 1613.47483840251  L 3478.27513217885 1612.5715269437  Z M 3482.10080728589 1611.12123836375  C 3481.42297147716 1611.29243023735  3480.75762286041 1611.50973002676  3480.10940862645 1611.7716199809  C 3479.80433956142 1611.89314351115  3479.50121231695 1612.01948619318  3479.20014070198 1612.15060059171  L 3479.59941403817 1613.06743252997  C 3479.89156781671 1612.94020178138  3480.18572144228 1612.81761339246  3480.48176390378 1612.69971362702  C 3481.08845718586 1612.45447980847  3481.71121440607 1612.25103204061  3482.34567512261 1612.09079483066  L 3482.10080728589 1611.12123836375  Z M 3486.19684544524 1610.65763285763  C 3485.16254567667 1610.63490058269  3484.12859720118 1610.71678872157  3483.110770269 1610.90204827929  L 3483.28984294662 1611.88588412745  C 3484.241362414 1611.71269350917  3485.20795316888 1611.63614006396  3486.17487233145 1611.65739141962  L 3486.19684544524 1610.65763285763  Z M 3490.26991372053 1611.46358237618  C 3489.29565717478 1611.0871219423  3488.27684122318 1610.83812368326  3487.23876982102 1610.72277187683  L 3487.12832832714 1611.71665450392  C 3488.08078474788 1611.82249266539  3489.01557381214 1612.05095478281  3489.90947850937 1612.39636662699  L 3490.26991372053 1611.46358237618  Z M 3493.82643306624 1613.57740797539  C 3493.50338779416 1613.31640826616  3493.17198510836 1613.06592560114  3492.83274479326 1612.82635284675  C 3492.32204817279 1612.470401543  3491.78469753281 1612.1543083044  3491.22545911703 1611.88087684475  L 3490.78621526017 1612.77924471718  C 3491.29841236408 1613.02967601409  3491.79060005143 1613.31911127453  3492.25842823183 1613.64499238992  C 3492.57916874064 1613.87158244527  3492.89251613464 1614.10846041354  3493.19798153342 1614.35525672091  L 3493.82643306624 1613.57740797539  Z M 3496.72250823027 1616.47795887818  C 3496.07819767028 1615.67795697927  3495.37091991766 1614.93078160984  3494.60744312448 1614.24358271415  L 3493.93844086109 1614.98684308009  C 3494.66227726627 1615.63836200344  3495.33283253459 1616.34674336916  3495.94368992244 1617.10520846438  L 3496.72250823027 1616.47795887818  Z M 3498.94135931221 1619.90015479282  C 3498.60794292042 1619.30224171064  3498.26435209988 1618.7100592489  3497.91073677821 1618.12386580947  C 3497.72935461436 1617.84247786736  3497.54066659077 1617.56586697439  3497.34486505093 1617.2943151003  L 3496.53373342845 1617.87917875195  C 3496.71649270282 1618.13264265986  3496.89271563323 1618.39075610545  3497.0622281041 1618.6532640619  C 3497.40723781496 1619.22552010327  3497.74253436261 1619.80357623589  3498.0679736069 1620.38718396008  L 3498.94135931221 1619.90015479282  Z M 3500.78635480849 1623.48610275605  C 3500.35528742756 1622.57445170024  3499.9013821844 1621.67377543557  3499.42506877086 1620.78492659209  L 3498.54364840853 1621.25725925543  C 3499.01205001706 1622.13134387324  3499.45841566618 1623.01705945283  3499.88232280143 1623.91356752678  L 3500.78635480849 1623.48610275605  Z M 3502.3871377064 1627.18752481927  C 3502.01807097008 1626.24905986062  3501.62548286557 1625.32001611369  3501.20974503852 1624.40127306276  L 3500.29868030712 1624.8135363951  C 3500.70751252008 1625.71701866256  3501.09357953901 1626.63063052628  3501.45651589149 1627.55350711067  L 3502.3871377064 1627.18752481927  Z M 3503.73652511196 1630.98781228287  C 3503.43111506446 1630.02674441983  3503.10160568585 1629.07350191506  3502.74830890795 1628.1289871607  L 3501.81168785801 1628.47933128982  C 3502.159116199 1629.40815717977  3502.48315226135 1630.34556584782  3502.78348929459 1631.290669891  L 3503.73652511196 1630.98781228287  Z M 3504.34864305907 1633.03977266311  C 3504.24713075933 1632.67598312685  3504.14219731666 1632.31315691183  3504.03385666899 1631.95134221098  L 3503.07588202514 1632.23819510312  C 3503.36034754388 1633.18819686872  3503.62089866318 1634.14519608232  3503.85728873092 1635.10828679553  L 3504.34864305907 1633.03977266311  Z M 3457.43114741718 1631.30765613373  C 3456.80751372349 1632.09616268527  3456.19644626877 1632.89452705631  3455.59817636668 1633.70244703378  L 3456.40182363332 1634.29755296622  C 3456.99379062902 1633.49814460528  3457.5984203523 1632.70819118031  3458.21548392642 1631.92799172054  L 3457.43114741718 1631.30765613373  Z M 3497.5158735185 1633.56402763659  L 3505 1638  L 3509.79556001308 1630.74103284475  L 3497.5158735185 1633.56402763659  Z " fill-rule="nonzero" fill="#6c6c6c" stroke="none" />
  </g>
</svg>