<?xml version="1.0" encoding="utf-8"?>
<svg version="1.1" xmlns:xlink="http://www.w3.org/1999/xlink" width="36px" height="10px" viewBox="3448 1668  36 10" xmlns="http://www.w3.org/2000/svg">
  <g transform="matrix(-0.838670567945411 0.544639035015016 -0.544639035015041 -0.838670567945411 7284.01329407896 1188.37696481063 )">
    <path d="M 3500.78205970355 1668.64312602485  C 3501.49037980211 1667.92402775939  3502.17849678983 1667.1853050283  3502.84560733391 1666.42782024336  L 3502.0951513036 1665.76689986497  C 3501.44033533058 1666.51042451901  3500.76490005398 1667.23553289609  3500.06963400149 1667.94137847832  L 3500.78205970355 1668.64312602485  Z M 3497.844625153 1671.41133126926  C 3498.60443995077 1670.74687573988  3499.34556632472 1670.06134823493  3500.06713905698 1669.35554906415  L 3499.36788904638 1668.64067185604  C 3498.65961460074 1669.3334634404  3497.93214687894 1670.00635695733  3497.18633515324 1670.65856684647  L 3497.844625153 1671.41133126926  Z M 3494.70954214589 1673.95352255876  C 3495.51664728674 1673.34738646098  3496.30668210127 1672.71884747727  3497.07872427411 1672.06863938689  L 3496.43454951036 1671.30376104771  C 3495.67673575505 1671.94198607225  3494.90126095497 1672.55894134279  3494.10903042762 1673.1539066033  L 3494.70954214589 1673.95352255876  Z M 3491.37604979549 1676.25180696945  C 3491.77240298581 1676.01247197858  3492.16155999104 1675.76141726857  3492.54300605859 1675.49897491894  C 3492.99908314039 1675.19023220963  3493.45043311701 1674.87456352333  3493.89689906746 1674.55207860867  L 3493.31136402458 1673.74143151309  C 3492.87209972922 1674.05871463102  3492.42801899272 1674.36927571683  3491.9792769329 1674.67300629127  C 3491.6131559229 1674.92499512055  3491.23961042121 1675.16602280066  3490.85913732188 1675.3957687141  L 3491.37604979549 1676.25180696945  Z M 3487.71067238459 1678.04885141989  C 3488.66429022529 1677.68069385268  3489.59273975519 1677.25039871683  3490.49004514273 1676.76073554496  L 3490.01102423435 1675.88293205366  C 3489.15209370807 1676.35165390885  3488.26335097409 1676.76354670769  3487.35051629689 1677.11595936157  L 3487.71067238459 1678.04885141989  Z M 3483.78861856717 1679.18104141032  C 3484.79173226227 1678.98434393935  3485.78086792681 1678.72207867167  3486.74965913167 1678.39593363985  L 3486.43060248544 1677.4481979929  C 3485.50324336 1677.7603948522  3484.55640984188 1678.01144387913  3483.59619608855 1678.19972923282  L 3483.78861856717 1679.18104141032  Z M 3479.72942890216 1679.613868841  C 3480.75146447758 1679.59462662257  3481.77113834007 1679.5083848249  3482.7818875058 1679.35569853091  L 3482.63251967206 1678.36691683091  C 3481.66499699259 1678.51307322391  3480.68893129689 1678.59562673766  3479.71060489112 1678.6140460284  L 3479.72942890216 1679.613868841  Z M 3475.65054355113 1679.19691395623  C 3476.65455513458 1679.39316967084  3477.6707318233 1679.5210396225  3478.69206494267 1679.57964187907  L 3478.74934892391 1678.58128395453  C 3477.77319958034 1678.52527426171  3476.80197854694 1678.40306127653  3475.84238443458 1678.21548791447  L 3475.65054355113 1679.19691395623  Z M 3471.72872275823 1678.05422028898  C 3472.6810182054 1678.42797013381  3473.65758796466 1678.7366403341  3474.65169653442 1678.9781019599  L 3474.88772640852 1678.00635616056  C 3473.93759720053 1677.77557679676  3473.00423088609 1677.48056216571  3472.09406498821 1677.1233470135  L 3471.72872275823 1678.05422028898  Z M 3468.0766003448 1676.2243489749  C 3468.94607930583 1676.76338691561  3469.85114902801 1677.24277672072  3470.78556715283 1677.65921198966  L 3471.1926345855 1676.74581388081  C 3470.29955511725 1676.34780170759  3469.43452567835 1675.88962010681  3468.60351246536 1675.37442920387  L 3468.0766003448 1676.2243489749  Z M 3464.77436426853 1673.87731061651  C 3465.49321763157 1674.43624700846  3466.22686318549 1674.97589470912  3466.97451704666 1675.49567711716  C 3467.05594784347 1675.55300631223  3467.13775661729 1675.60979673725  3467.21993800886 1675.66604467191  L 3467.78474887001 1674.84082428248  C 3467.70539525922 1674.78651178388  3467.62640515463 1674.73167007956  3467.54778383791 1674.67630283648  C 3466.81389723368 1674.16615622069  3466.09377468396 1673.63648853878  3465.38818733317 1673.08786698628  L 3464.77436426853 1673.87731061651  Z M 3461.68656258026 1671.27455269662  C 3462.43248193641 1671.95542501639  3463.19839625192 1672.61406380488  3463.98329890952 1673.24960343371  L 3464.61258221668 1672.47242744377  C 3463.84301936039 1671.84930852922  3463.09207374617 1671.20354189506  3462.36073231839 1670.53597625225  L 3461.68656258026 1671.27455269662  Z M 3458.81364139322 1668.43638569859  C 3459.50354136841 1669.1739633731  3460.21512744638 1669.89095364226  3460.94746441175 1670.58641418813  L 3461.63607876789 1669.861286428  C 3460.91805428247 1669.17941766513  3460.22037513798 1668.47643994665  3459.54395827238 1667.75327717426  L 3458.81364139322 1668.43638569859  Z M 3457.70014721202 1667.2065684065  C 3457.84277474946 1667.36932280145  3457.98643336939 1667.53117072649  3458.13111439931 1667.69210241103  L 3458.87477029367 1667.02353984045  C 3458.2127568912 1666.28716872043  3457.57269019354 1665.53135890054  3456.95541142036 1664.75710371803  L 3457.70014721202 1667.2065684065  Z M 3503.50559180914 1665.66422440115  C 3504.15849779296 1664.89446245501  3504.78979777071 1664.10663214314  3505.39875473983 1663.30165320728  L 3504.60124526017 1662.69834679272  C 3504.00351111579 1663.48849030016  3503.3838457352 1664.26180122565  3502.74297253828 1665.0173767779  L 3503.50559180914 1665.66422440115  Z M 3463.64379749884 1663.98730177713  L 3455 1663  L 3453.59247420899 1671.58538707034  L 3463.64379749884 1663.98730177713  Z " fill-rule="nonzero" fill="#6c6c6c" stroke="none" />
  </g>
</svg>