<?xml version="1.0" encoding="utf-8"?>
<svg version="1.1" xmlns:xlink="http://www.w3.org/1999/xlink" width="34px" height="10px" viewBox="3642 1616  34 10" xmlns="http://www.w3.org/2000/svg">
  <g transform="matrix(0.866025403784449 -0.500000000000004 0.500000000000004 0.866025403784433 -320.286952447304 2046.67282046545 )">
    <path d="M 3626.64098830943 1626.96854030122  C 3626.00712408266 1627.75403393254  3625.39525970374 1628.55702906017  3624.80610681935 1629.37659173723  L 3625.61807889279 1629.96028802123  C 3626.19639403343 1629.15580158417  3626.79700288 1628.36757792869  3627.41920687689 1627.59653382129  L 3626.64098830943 1626.96854030122  Z M 3629.2905596437 1623.92375445447  C 3628.60016154876 1624.660052338  3627.93040410858 1625.4154357933  3627.28206630409 1626.18902624959  L 3628.04849194104 1626.8313592964  C 3628.68490326741 1626.07199939953  3629.34234020522 1625.33051157734  3630.02003810325 1624.60775823885  L 3629.2905596437 1623.92375445447  Z M 3632.15874082948 1621.08395062434  C 3631.41561485696 1621.76699373555  3630.69165655941 1622.47060128  3629.98770795762 1623.19395490642  L 3630.70436204683 1623.89138369592  C 3631.39536118377 1623.18133649887  3632.10600192875 1622.49067214535  3632.83545775032 1621.82019393266  L 3632.15874082948 1621.08395062434  Z M 3635.25816574954 1618.47092030564  C 3634.79036296816 1618.81318048229  3634.33648205958 1619.17407384195  3633.89761832436 1619.55272948063  C 3633.56436719418 1619.83380453589  3633.23450930778 1620.11887826072  3632.9081162598 1620.40788878076  L 3633.57104806799 1621.15656856391  C 3633.89284638066 1620.87162653383  3634.21807573228 1620.59058299953  3634.54666491042 1620.31349949847  C 3634.96658281554 1619.95099314457  3635.400925221 1619.60553990575  3635.84863693157 1619.27797902915  L 3635.25816574954 1618.47092030564  Z M 3638.7707675456 1616.3788929228  C 3637.84543016968 1616.81755758837  3636.95235390123 1617.3212679315  3636.09825404177 1617.88623640688  L 3636.64995477565 1618.72027855224  C 3637.46463754691 1618.18138362315  3638.31649794855 1617.70091973628  3639.19913059322 1617.28249964003  L 3638.7707675456 1616.3788929228  Z M 3642.61380961211 1614.9839099038  C 3641.62254490984 1615.24095121984  3640.65074890475 1615.56794029534  3639.70572881502 1615.96241840389  L 3640.09094298442 1616.88524560531  C 3640.9923499769 1616.50897283684  3641.91929716435 1616.19707445253  3642.86481455995 1615.9518957075  L 3642.61380961211 1614.9839099038  Z M 3646.6724556934 1614.36836839102  C 3646.36529891355 1614.37612191981  3646.05835993814 1614.39090762304  3645.75188009872 1614.4127138754  C 3645.03285097393 1614.4894956042  3644.31811613032 1614.60222253684  3643.61035871176 1614.75047149181  L 3643.81537247564 1615.729230582  C 3644.48469028307 1615.58903330127  3645.16055366404 1615.48214060141  3645.84046857912 1615.40894693287  C 3646.12586742505 1615.3889054395  3646.41168000183 1615.37526967784  3646.69769055778 1615.36804994112  L 3646.6724556934 1614.36836839102  Z M 3650.75523150529 1614.68196233349  C 3649.7455696046 1614.49974201053  3648.72345307819 1614.39498620743  3647.6978187669 1614.36861085296  L 3647.67211112703 1615.36828035697  C 3648.64678945831 1615.39334532038  3649.61812477673 1615.49289660317  3650.57762424521 1615.66606378211  L 3650.75523150529 1614.68196233349  Z M 3654.69005252253 1615.81535681613  C 3653.73816294195 1615.43256754487  3652.75839886173 1615.12311913404  3651.75932681556 1614.88971723522  L 3651.53183368486 1615.86349692051  C 3652.48126942827 1616.08530285149  3653.41235647191 1616.37937712082  3654.31695388812 1616.74314850019  L 3654.69005252253 1615.81535681613  Z M 3658.30878071177 1617.71213022371  C 3658.20245199669 1617.64443132346  3658.09585758019 1617.57715064363  3657.98899993284 1617.51028974363  C 3657.23267644758 1617.02883830815  3656.4450299021 1616.59845843057  3655.6313229072 1616.22202566695  L 3655.21145969563 1617.12961306416  C 3655.98590787025 1617.48788412301  3656.73551415187 1617.89757646847  3657.45525498437 1618.35594450925  C 3657.56100290522 1618.42209882248  3657.66648761886 1618.48867294548  3657.77170662863 1618.55566530254  L 3658.30878071177 1617.71213022371  Z M 3661.62319475542 1620.02361014806  C 3660.81929201845 1619.4112151545  3659.99628964824 1618.82430679276  3659.15541309568 1618.26375896964  L 3658.60073793521 1619.09582595393  C 3659.42413307137 1619.64472025921  3660.23002562079 1620.21942708028  3661.01721560909 1620.81909067844  L 3661.62319475542 1620.02361014806  Z M 3664.7319049159 1622.60512153317  C 3663.98223876841 1621.92741370088  3663.21140122056 1621.27349948535  3662.4205400498 1620.64435256513  L 3661.79798448086 1621.42692816121  C 3662.5724040308 1622.04299542158  3663.32721623925 1622.68331507718  3664.06129719051 1623.34693369178  L 3664.7319049159 1622.60512153317  Z M 3667.11871615733 1624.91759067937  C 3666.58371130496 1624.36215590963  3666.03542612489 1623.81966783586  3665.47433613751 1623.29059695068  L 3664.7882936265 1624.01815840724  C 3665.50827239733 1624.69705094527  3666.20667744383 1625.39846460524  3666.88246884061 1626.12135498191  L 3667.11871615733 1624.91759067937  Z M 3624.22463324527 1630.20152302805  C 3623.65079722033 1631.03188217883  3623.10019895668 1631.87806226916  3622.57347884368 1632.73907912461  L 3623.42652115632 1633.26092087539  C 3623.94355200569 1632.415742829  3624.48402175593 1631.58512861847  3625.04730179794 1630.77004431389  L 3624.22463324527 1630.20152302805  Z M 3661.32192255382 1628.38277083822  L 3670 1629  L 3671.03956441282 1620.3623321532  L 3661.32192255382 1628.38277083822  Z " fill-rule="nonzero" fill="#6c6c6c" stroke="none" />
  </g>
</svg>