<?xml version="1.0" encoding="utf-8"?>
<svg version="1.1" xmlns:xlink="http://www.w3.org/1999/xlink" width="32px" height="10px" viewBox="3644 1666  32 10" xmlns="http://www.w3.org/2000/svg">
  <g transform="matrix(-0.838670567945412 -0.544639035015014 0.544639035015042 -0.838670567945412 5819.44245117007 5065.79738719173 )">
    <path d="M 3665.98870369226 1668.80112394684  C 3666.69016471885 1668.07044265149  3667.36338460385 1667.31316464411  3668.00688325693 1666.53095481888  L 3667.23462651548 1665.895644245  C 3666.6073487282 1666.65813666983  3665.95109890111 1667.39632574069  3665.26731981546 1668.10858853093  L 3665.98870369226 1668.80112394684  Z M 3663.0389947432 1671.57529646472  C 3663.81128645005 1670.9199276779  3664.55819537167 1670.23522186018  3665.27807941058 1669.52268435399  L 3664.57460845567 1668.81196034595  C 3663.87287075216 1669.50653670302  3663.14478939036 1670.17398293343  3662.3919650749 1670.81283164039  L 3663.0389947432 1671.57529646472  Z M 3659.81961290297 1674.03537656311  C 3659.852039078 1674.01335032222  3659.88440198799 1673.99123108866  3659.91670123337 1673.96901913551  C 3660.71851523237 1673.41519230619  3661.49965048083 1672.83200957729  3662.25851728877 1672.22065778522  L 3661.63116135248 1671.44192514226  C 3660.89169140147 1672.03765060423  3660.13052996447 1672.60593702551  3659.34922496182 1673.14562872207  C 3659.31878060844 1673.16656273553  3659.28827679939 1673.18741015067  3659.25771390443 1673.20817071482  L 3659.81961290297 1674.03537656311  Z M 3656.22092949127 1675.98569985821  C 3657.16681591308 1675.58955860604  3658.0816334786 1675.12297714004  3658.95767258624 1674.58988756359  L 3658.43783352362 1673.73562334862  C 3657.60454232789 1674.24269985551  3656.73436493922 1674.68651363541  3655.83463475527 1675.06332445907  L 3656.22092949127 1675.98569985821  Z M 3652.3064286786 1677.18193003701  C 3653.31217520154 1676.98167283682  3654.30147164519 1676.70620598004  3655.26598073911 1676.35785095655  L 3654.92628445377 1675.41731577181  C 3654.00884032467 1675.7486721822  3653.06781838938 1676.01069713573  3652.11114908615 1676.20118242382  L 3652.3064286786 1677.18193003701  Z M 3648.22102774705 1677.57363930899  C 3648.26035622923 1677.5746655394  3648.29968705013 1677.57560009095  3648.33901988932 1677.576442956  C 3649.32887837046 1677.57477731032  3650.31731542254 1677.50139575655  3651.29656831243 1677.35687459991  L 3651.15056668211 1676.36759025052  C 3650.22290423436 1676.50449753087  3649.28657205415 1676.5742891877  3648.34886385149 1676.57642156771  C 3648.31494513126 1676.57567855717  3648.28102800325 1676.57486455915  3648.24711269023 1676.57397957901  L 3648.22102774705 1677.57363930899  Z M 3644.16802338727 1677.1396093395  C 3645.17063994179 1677.32960159015  3646.18382696148 1677.45879797994  3647.20203844422 1677.52649131125  L 3647.26837459002 1676.52869397925  C 3646.29038358514 1676.46367460927  3645.31721857148 1676.33958161953  3644.35420647794 1676.15709427257  L 3644.16802338727 1677.1396093395  Z M 3640.23721467396 1676.06073529027  C 3641.19634260768 1676.40917555413  3642.17566116674 1676.69930449764  3643.16980973886 1676.92953400757  L 3643.39542337085 1675.95531714821  C 3642.44054476505 1675.73418195814  3641.49991037041 1675.45551342825  3640.57866904914 1675.12083693956  L 3640.23721467396 1676.06073529027  Z M 3636.53050922354 1674.36498735543  C 3637.42128280303 1674.8628421945  3638.3413437189 1675.30638199551  3639.28565572446 1675.69317890197  L 3639.66469772884 1674.76779943445  C 3638.75768709019 1674.39628143288  3637.87396959642 1673.97026194377  3637.01838255689 1673.49207292057  L 3636.53050922354 1674.36498735543  Z M 3633.09368905158 1672.24517637455  C 3633.93338117016 1672.80409608566  3634.78742466335 1673.3411489933  3635.65495850697 1673.85579365483  L 3636.16516477672 1672.9957415853  C 3635.31249811076 1672.48991653774  3634.47309060719 1671.96206726065  3633.6477885346 1671.41272591781  L 3633.09368905158 1672.24517637455  Z M 3629.81503818471 1669.89534098806  C 3630.61411018109 1670.51093666873  3631.42900996347 1671.10570927954  3632.25891597128 1671.67905918637  L 3632.82732120131 1670.85631044314  C 3632.01163753207 1670.29278619901  3631.21070292227 1669.70820637795  3630.42532485312 1669.10316033799  L 3629.81503818471 1669.89534098806  Z M 3626.70656305835 1667.32460952811  C 3627.46119644145 1667.99393945764  3628.23305838634 1668.64358955724  3629.02137072209 1669.27290486674  L 3629.64525869869 1668.49139108397  C 3628.87045589877 1667.87286053241  3628.11182157462 1667.23434367392  3627.37012056142 1666.5764842444  L 3626.70656305835 1667.32460952811  Z M 3668.64025060563 1665.74071302521  C 3669.26357266067 1664.94233194895  3669.8560894529 1664.12037158195  3670.41649831974 1663.2766390241  L 3669.58350168026 1662.7233609759  C 3669.03721920978 1663.54582531116  3668.4596381681 1664.34706627379  3667.85202838124 1665.125322316  L 3668.64025060563 1665.74071302521  Z M 3631.69978986476 1662.939532579  L 3623 1663  L 3622.63626783494 1671.69239316369  L 3631.69978986476 1662.939532579  Z " fill-rule="nonzero" fill="#6c6c6c" stroke="none" />
  </g>
</svg>