<?xml version="1.0" encoding="utf-8"?>
<svg version="1.1" xmlns:xlink="http://www.w3.org/1999/xlink" width="6px" height="14px" xmlns="http://www.w3.org/2000/svg">
  <g transform="matrix(1 0 0 1 -378 -254 )">
    <path d="M 381 254  C 382.68 254  384 257.08  384 261  C 384 264.92  382.68 268  381 268  C 379.32 268  378 264.92  378 261  C 378 257.08  379.32 254  381 254  Z " fill-rule="nonzero" fill="#ffffff" stroke="none" />
    <path d="M 381 254.5  C 382.4 254.5  383.5 257.36  383.5 261  C 383.5 264.64  382.4 267.5  381 267.5  C 379.6 267.5  378.5 264.64  378.5 261  C 378.5 257.36  379.6 254.5  381 254.5  Z " stroke-width="1" stroke="#797979" fill="none" />
  </g>
</svg>