<?xml version="1.0" encoding="utf-8"?>
<svg version="1.1" xmlns:xlink="http://www.w3.org/1999/xlink" width="104px" height="104px" xmlns="http://www.w3.org/2000/svg">
  <g transform="matrix(1 0 0 1 -435 -856 )">
    <path d="M 436 860  A 3 3 0 0 1 439 857 L 535 857  A 3 3 0 0 1 538 860 L 538 956  A 3 3 0 0 1 535 959 L 439 959  A 3 3 0 0 1 436 956 L 436 860  Z " fill-rule="nonzero" fill="#000000" stroke="none" fill-opacity="0.0196078431372549" />
    <path d="M 435.5 860  A 3.5 3.5 0 0 1 439 856.5 L 535 856.5  A 3.5 3.5 0 0 1 538.5 860 L 538.5 956  A 3.5 3.5 0 0 1 535 959.5 L 439 959.5  A 3.5 3.5 0 0 1 435.5 956 L 435.5 860  Z " stroke-width="1" stroke-dasharray="9,4" stroke="#d9d9d9" fill="none" stroke-dashoffset="0.5" />
  </g>
</svg>