<?xml version="1.0" encoding="utf-8"?>
<svg version="1.1" xmlns:xlink="http://www.w3.org/1999/xlink" width="12px" height="12px" viewBox="435 810.5  12 12" xmlns="http://www.w3.org/2000/svg">
  <path d="M 441 810.5  C 444.36 810.5  447 813.14  447 816.5  C 447 819.86  444.36 822.5  441 822.5  C 437.64 822.5  435 819.86  435 816.5  C 435 813.14  437.64 810.5  441 810.5  Z " fill-rule="nonzero" fill="#ffffff" stroke="none" />
  <path d="M 441 811  C 444.08 811  446.5 813.42  446.5 816.5  C 446.5 819.58  444.08 822  441 822  C 437.92 822  435.5 819.58  435.5 816.5  C 435.5 813.42  437.92 811  441 811  Z " stroke-width="1" stroke="#797979" fill="none" />
  <path d="M 441 819.5  C 439.32 819.5  438 818.18  438 816.5  C 438 814.82  439.32 813.5  441 813.5  C 442.68 813.5  444 814.82  444 816.5  C 444 818.18  442.68 819.5  441 819.5  " fill-rule="nonzero" fill="#797979" stroke="none" />
</svg>