<?xml version="1.0" encoding="utf-8"?>
<svg version="1.1" xmlns:xlink="http://www.w3.org/1999/xlink" width="36px" height="10px" viewBox="1556 258  36 10" xmlns="http://www.w3.org/2000/svg">
  <g transform="matrix(-0.84804809615643 -0.529919264233207 0.529919264233198 -0.848048096156433 2769.45893685689 1320.12957119221 )">
    <path d="M 1580.78192633856 258.644325014531  C 1581.4926732852 257.927001467544  1582.18231283315 257.189067408671  1582.84996250583 256.431467113142  L 1582.09972135426 255.770302826075  C 1581.4449484137 256.513291542423  1580.76860970911 257.236993318131  1580.07157069705 257.940482089886  L 1580.78192633856 258.644325014531  Z M 1577.83032342911 261.399846960172  C 1578.59473648965 260.740008369231  1579.33971005073 260.057979209567  1580.06429082926 259.354632219378  L 1579.36777597969 258.637089841303  C 1578.65716994416 259.326871617356  1577.92656443472 259.995746712628  1577.17689434884 260.642859221128  L 1577.83032342911 261.399846960172  Z M 1574.67323909045 263.917321767704  C 1575.4866820961 263.318970056946  1576.28247140219 262.696982306532  1577.05958870075 262.052154424464  L 1576.421024519 261.282585853257  C 1575.65889521742 261.914977159319  1574.87845402897 262.524968843579  1574.08069962185 263.111780348436  L 1574.67323909045 263.917321767704  Z M 1571.29911478919 266.167264613663  C 1571.82031140315 265.869556443404  1572.32981248176 265.551824627672  1572.82647829389 265.21477991833  C 1573.17183503574 264.983206682906  1573.51439360529 264.747487404298  1573.85407965276 264.507673243622  L 1573.27733903358 263.690745916263  C 1572.94344356172 263.92647200197  1572.60671811424 264.158163798195  1572.26723610911 264.385770787997  C 1571.79115954489 264.708929375419  1571.30275704449 265.01354579974  1570.80312464334 265.29893646416  L 1571.29911478919 266.167264613663  Z M 1567.59047657476 267.873862861343  C 1568.55302096676 267.529492568897  1569.49186415551 267.122163438203  1570.40092268365 266.654514855082  L 1569.94347196594 265.765279880027  C 1569.07341911998 266.212862701216  1568.17485960705 266.602714243694  1567.25361585685 266.932308371826  L 1567.59047657476 267.873862861343  Z M 1563.64094204505 268.907135324485  C 1564.64881022485 268.73600865491  1565.64432690051 268.498753302492  1566.62104138537 268.196906619623  L 1566.32577697807 267.241491040002  C 1565.39097114222 267.530386152188  1564.43816987581 267.757461404439  1563.47354708088 267.921245408739  L 1563.64094204505 268.907135324485  Z M 1559.55745337401 269.220996333125  C 1559.72569158343 269.227058246838  1559.89399016492 269.231309233659  1560.06231987595 269.233748554961  C 1560.92083628828 269.221861912022  1561.77803990987 269.162542036486  1562.63001018454 269.056060237173  L 1562.50599206096 268.063780284225  C 1561.69526752171 268.16510706786  1560.87958808677 268.221813686853  1560.06264167168 268.23364375467  C 1559.90621084115 268.231278161653  1559.74980899421 268.227278306647  1559.59346173688 268.221644844507  L 1559.55745337401 269.220996333125  Z M 1555.50641594934 268.719709812715  C 1556.50605280328 268.933002318257  1557.51855968673 269.080741869422  1558.53746460449 269.161984107533  L 1558.61694720083 268.165147853738  C 1557.64147032032 268.087368343976  1556.6721187754 267.945925787378  1555.71508871014 267.741724291913  L 1555.50641594934 268.719709812715  Z M 1551.6035738314 267.523877134567  C 1552.55111319603 267.907200346986  1553.52268955999 268.228193388946  1554.51209255806 268.484804456699  L 1554.76314563573 267.516831134654  C 1553.81591323622 267.271157412295  1552.88574765926 266.96384582141  1551.97859457024 266.596860713221  L 1551.6035738314 267.523877134567  Z M 1547.96706409538 265.669695554608  C 1548.83382442893 266.211446472351  1549.73506114374 266.695976706577  1550.66501348917 267.120189115539  L 1551.08003779732 266.210378792645  C 1550.18972212886 265.804247278157  1549.32689816577 265.340368820847  1548.49708112241 264.821708555259  L 1547.96706409538 265.669695554608  Z M 1544.65245787249 263.35243700607  C 1545.45656816852 263.963080112074  1546.27813913399 264.550382659117  1547.11614417595 265.113610784062  L 1547.67396577347 264.28364990225  C 1546.85193377947 263.73115735693  1546.04602261529 263.155049267296  1545.2572393062 262.556045508472  L 1544.65245787249 263.35243700607  Z M 1541.53337314314 260.788719517765  C 1542.28814330362 261.45939110351  1543.06211733642 262.108133987569  1543.85432812328 262.734137534097  L 1544.4743225499 261.949531320151  C 1543.69721193579 261.335459903112  1542.93799046857 260.699082578548  1542.19760683248 260.041194530931  L 1541.53337314314 260.788719517765  Z M 1538.62067681475 257.992733643817  C 1539.32163670845 258.71946165243  1540.04342994229 259.425802689503  1540.78515460045 260.110874147497  L 1541.46364993509 259.376269436877  C 1540.73606314359 258.704255990122  1540.02802786748 258.011378379519  1539.34042883134 257.298502389397  L 1538.62067681475 257.992733643817  Z M 1537.81099279081 257.13416532195  C 1537.84952761172 257.175958568811  1537.88813033507 257.217689156277  1537.92680080782 257.259356918916  L 1538.65977865741 256.579104412851  C 1537.98602482607 255.853128940438  1537.33336908464 255.107854615998  1536.70262695826 254.344212696111  L 1537.81099279081 257.13416532195  Z M 1583.51014633336 255.667468184257  C 1584.16291648254 254.897010251887  1584.79303935029 254.107646867321  1585.39970861874 253.300388115784  L 1584.60029138126 252.699611884216  C 1584.00532273661 253.491301310823  1583.38735283426 254.265440512315  1582.74717244089 255.021038884636  L 1583.51014633336 255.667468184257  Z M 1543.6669282418 253.757862026684  L 1535 253  L 1533.82051348356 261.619675838309  L 1543.6669282418 253.757862026684  Z " fill-rule="nonzero" fill="#6c6c6c" stroke="none" />
  </g>
</svg>