<?xml version="1.0" encoding="utf-8"?>
<svg version="1.1" xmlns:xlink="http://www.w3.org/1999/xlink" width="36px" height="10px" viewBox="1696 208  36 10" xmlns="http://www.w3.org/2000/svg">
  <g transform="matrix(0.777145961456967 0.629320391049831 -0.629320391049846 0.777145961456964 516.017065356376 -1031.18724004974 )">
    <path d="M 1706.65638656115 216.979102400497  C 1706.02309453205 217.76449071964  1705.41076241286 218.566551552549  1704.82003719561 219.384437439256  L 1705.63070237853 219.969947440199  C 1706.21106592323 219.166407759639  1706.81265737192 218.378415551993  1707.43484108121 217.606803412286  L 1706.65638656115 216.979102400497  Z M 1709.29842291084 213.929966253185  C 1708.61117082935 214.668598896967  1707.94364702418 215.425344675554  1707.29655680306 216.199404009003  L 1708.06378235535 216.840781395501  C 1708.69952222814 216.080299524322  1709.35533726773 215.336827517926  1710.03053453791 214.611150931152  L 1709.29842291084 213.929966253185  Z M 1712.14949073828 211.075320993049  C 1711.4117204771 211.763498766373  1710.69234805616 212.471139581948  1709.9921335666 213.197495744289  L 1710.71207709512 213.891528391743  C 1711.40000940502 213.177912949604  1712.10676360474 212.482684575892  1712.83159293561 211.806577851061  L 1712.14949073828 211.075320993049  Z M 1715.20923885051 208.427474606133  C 1714.85841539062 208.697210140622  1714.51586932908 208.977543792491  1714.18207488535 209.268087468918  C 1713.74686520003 209.636838440794  1713.31721438373 210.012100444246  1712.89326758958 210.393746700852  L 1713.56232349744 211.136958778363  C 1713.98049515786 210.760511424547  1714.40431548331 210.390386555631  1714.8336401462 210.026710213792  C 1715.15372783909 209.747918869438  1715.48225662422 209.478969751188  1715.81876693164 209.220239084602  L 1715.20923885051 208.427474606133  Z M 1718.66873300118 206.250025234158  C 1717.75500972422 206.711945888286  1716.87489131184 207.237532638825  1716.03488670761 207.822898492324  L 1716.60661895415 208.643338763319  C 1717.40817051232 208.084769310707  1718.24799958144 207.583242442011  1719.11989517903 207.142467215058  L 1718.66873300118 206.250025234158  Z M 1722.47332499571 204.755212436123  C 1721.48954164564 205.038816451791  1720.52691362578 205.391232608533  1719.59256008212 205.80985460151  L 1720.00143205691 206.722446354833  C 1720.89301352568 206.322987698216  1721.81157514472 205.986704161029  1722.7503236625 205.716082738815  L 1722.47332499571 204.755212436123  Z M 1726.51107040392 204.008026037428  C 1726.38451220631 204.014731407936  1726.25802277377 204.022677124498  1726.13162033446 204.031862042073  C 1725.23335405545 204.13084669426  1724.34209567085 204.285476493031  1723.46298315915 204.494860019476  L 1723.69467806124 205.467648522875  C 1724.5274977257 205.269290842923  1725.37174645666 205.122428198762  1726.22262709094 205.027895088617  C 1726.33634258951 205.019747527579  1726.45013137691 205.012657329174  1726.56397870164 205.006625412569  L 1726.51107040392 204.008026037428  Z M 1730.60352115778 204.22478953986  C 1729.58943586764 204.062419198278  1728.56405561519 203.980853343859  1727.53705361741 203.980861451346  L 1727.53706151174 204.980861451315  C 1728.51111057689 204.980853761856  1729.48362151502 205.058214024462  1730.44541986691 205.21221243904  L 1730.60352115778 204.22478953986  Z M 1734.55906109458 205.296630664861  C 1733.60173293531 204.924802883501  1732.61638311533 204.629602302596  1731.61230721309 204.413813780992  L 1731.40219221617 205.39149045969  C 1732.35449727111 205.596152776019  1733.28904177354 205.876132610999  1734.19700943143 206.228788695034  L 1734.55906109458 205.296630664861  Z M 1738.20107551396 207.17569174897  C 1737.34324914968 206.611008623431  1736.4419255923 206.115354010199  1735.50560773457 205.693403808382  L 1735.09475147264 206.605103941119  C 1735.98279213467 207.005298098979  1736.83764282665 207.475396417874  1737.65123907086 208.010964091284  L 1738.20107551396 207.17569174897  Z M 1741.48753137954 209.524229715754  C 1740.69103674659 208.90180433132  1739.87465264438 208.305258749931  1739.03965507824 207.735525370143  L 1738.47603677224 208.561560723585  C 1739.29325343226 209.119161881504  1740.0922529939 209.703004286977  1740.87178662377 210.312175396464  L 1741.48753137954 209.524229715754  Z M 1744.56219920277 212.14769232248  C 1743.82217617494 211.459082870192  1743.06011197807 210.794547097736  1742.27719771569 210.15512367209  L 1741.64463736244 210.929634743339  C 1742.41087980976 211.555441928223  1743.15671618456 212.205826703533  1743.88098074732 212.879772520243  L 1744.56219920277 212.14769232248  Z M 1747.23180055713 214.84096976318  C 1746.60595933409 214.156379263342  1745.95997276057 213.490481152587  1745.29469102438 212.844151824446  L 1744.59787447759 213.561401223275  C 1745.30746657395 214.250778607237  1745.99461478689 214.962887859661  1746.65824510626 215.696615956393  L 1747.23180055713 214.84096976318  Z M 1704.23661344658 220.207458854156  C 1703.66045310165 221.035669493364  1703.10637932951 221.879028526579  1702.57497756624 222.736644858027  L 1703.42502243376 223.263355141973  C 1703.94710309323 222.420781912361  1704.49145808102 221.592215899473  1705.05751222994 220.778532568726  L 1704.23661344658 220.207458854156  Z M 1741.34203256975 218.1458337535  L 1750 219  L 1751.27523937182 210.393969292144  L 1741.34203256975 218.1458337535  Z " fill-rule="nonzero" fill="#6c6c6c" stroke="none" />
  </g>
</svg>