<?xml version="1.0" encoding="utf-8"?>
<svg version="1.1" xmlns:xlink="http://www.w3.org/1999/xlink" width="40px" height="10px" viewBox="1558 208  40 10" xmlns="http://www.w3.org/2000/svg">
  <g transform="matrix(0.544639035015027 -0.838670567945419 0.838670567945424 0.544639035015027 539.922771773912 1420.41404175967 )">
    <path d="M 1539.99855162982 218.212813352097  C 1539.34216545307 218.974042957438  1538.69751909147 219.745317062975  1538.06484098869 220.526362351891  L 1538.84188957863 221.15580296773  C 1539.46811749398 220.382720477722  1540.10619165111 219.61930955335  1540.75588593533 218.865840724952  L 1539.99855162982 218.212813352097  Z M 1542.68570387591 215.222608269503  C 1541.99867559766 215.95630130474  1541.32296567349 216.700511473846  1540.65881355511 217.454975050643  L 1541.40941645463 218.115728625914  C 1542.06679750629 217.368956846032  1542.73561853129 216.6323339398  1543.41564251913 215.906120944685  L 1542.68570387591 215.222608269503  Z M 1545.49313075565 212.345028045685  C 1544.7766144982 213.049951997526  1544.07097612034 213.765848049406  1543.37646567954 214.492462508858  L 1544.09936196886 215.183419059507  C 1544.78679183821 214.464212473714  1545.48523619469 213.755615020753  1546.1944475302 213.057877806675  L 1545.49313075565 212.345028045685  Z M 1548.4161161401 209.584906658513  C 1547.67131556189 210.259877342144  1546.93693411529 210.946256660235  1546.21323204346 211.643801380167  L 1546.90720734648 212.363800184888  C 1547.6235312366 211.673366971049  1548.35042562468 210.993985327185  1549.08763292077 210.325896006128  L 1548.4161161401 209.584906658513  Z M 1551.44974977635 206.94688076958  C 1550.67791604996 207.590764317976  1549.91602520438 208.246473870142  1549.16434723125 208.913777061948  L 1549.82823575553 209.66160861205  C 1550.57225033112 209.001108612329  1551.32637365838 208.352084054461  1552.09033849824 207.714764933621  L 1551.44974977635 206.94688076958  Z M 1554.66563210709 204.48500452024  C 1554.08482064461 204.874334036516  1553.51704871192 205.282772521189  1552.96324797904 205.709649758162  C 1552.71615404173 205.907565602926  1552.47001974262 206.106676569162  1552.22485373539 206.30697565645  L 1552.85754023056 207.081383687682  C 1553.09778705053 206.885103545466  1553.33897328637 206.689976064192  1553.5810906266 206.496007968115  C 1554.1150983534 206.084644481194  1554.66250864111 205.690978987057  1555.2224314102 205.3156515789  L 1554.66563210709 204.48500452024  Z M 1558.17707097732 202.444397119735  C 1557.26753915865 202.897668756864  1556.38032772924 203.394410746769  1555.51850987956 203.932902436749  L 1556.04840658814 204.780964626825  C 1556.8830398436 204.259458751295  1557.74226568103 203.778385651788  1558.6231078486 203.339411705907  L 1558.17707097732 202.444397119735  Z M 1561.95446610763 200.89311603659  C 1561.44914926892 201.041412281797  1560.95182893467 201.215708449938  1560.46449241393 201.415308047567  C 1560.00293428765 201.601371408631  1559.54582124832 201.798276960474  1559.09353334501 202.005860993537  L 1559.51066195268 202.914708464056  C 1559.94952962461 202.713283839043  1560.39308819131 202.522240921488  1560.84096744679 202.341739160978  C 1561.29725175921 202.154755388848  1561.76290584482 201.991507119274  1562.23606201544 201.852649123411  L 1561.95446610763 200.89311603659  Z M 1566.03060739157 200.275933491264  C 1564.9960424133 200.291543224044  1563.96573154346 200.412095118353  1562.95550740337 200.635736672633  L 1563.17165245648 201.612097935699  C 1564.11582534205 201.403078686151  1565.0787716313 201.29040880885  1566.04569388358 201.275819683667  L 1566.03060739157 200.275933491264  Z M 1570.13301585535 200.902394218125  C 1569.19463140431 200.582765768604  1568.21987038742 200.382067292263  1567.23154468976 200.304995643511  C 1567.17572331191 200.301447517849  1567.11988289013 200.298205637244  1567.06402594496 200.295270148027  L 1567.01154466741 201.293892056212  C 1567.06134923633 201.296509470654  1567.11113976608 201.299387517389  1567.16091421113 201.302526078176  C 1568.06346741413 201.373505913542  1568.9536005159 201.557084891938  1569.81059076957 201.848989202299  L 1570.13301585535 200.902394218125  Z M 1573.76579904089 202.902170338129  C 1573.57803092342 202.755330050373  1573.38751350392 202.612039685885  1573.19434816187 202.472375493338  C 1572.54009285347 202.005842531907  1571.84011131739 201.607019056502  1571.10519581938 201.282054099223  L 1570.70078745937 202.196632624202  C 1571.37273281172 202.493753440555  1572.01278728589 202.858305590702  1572.6111115851 203.284684962891  C 1572.79318162232 203.416377996913  1572.97276715649 203.551472258638  1573.14977355732 203.68989656188  L 1573.76579904089 202.902170338129  Z M 1576.70394377017 205.762057585296  C 1576.04928805966 204.969956431233  1575.33139055373 204.232324786215  1574.55732900448 203.556434961215  L 1573.89960409285 204.309693177644  C 1574.63288648607 204.949975735164  1575.3129636734 205.648747426512  1575.9331307733 206.399119061027  L 1576.70394377017 205.762057585296  Z M 1578.95050537113 209.176722560533  C 1578.70625376273 208.7298588627  1578.45638511095 208.286088394418  1578.2009588354 207.845516685829  C 1577.93016762883 207.409170561265  1577.64178028991 206.983993330272  1577.33650863936 206.571034449325  L 1576.53237082288 207.165477358365  C 1576.81861282745 207.55269372017  1577.08918557554 207.951251627646  1577.34343475045 208.360187262048  C 1577.59200885273 208.789191002634  1577.83522592481 209.221276464584  1578.07302928919 209.65634295795  L 1578.95050537113 209.176722560533  Z M 1580.76590645024 212.77746707838  C 1580.34212447011 211.8624787126  1579.89559584626 210.958198301181  1579.42673679646 210.065468741008  L 1578.5414107511 210.530439485691  C 1579.00254136008 211.408453733063  1579.44170962682 212.297828433171  1579.85850619425 213.197734583002  L 1580.76590645024 212.77746707838  Z M 1582.33808888919 216.490859669997  C 1581.9760285017 215.549739511888  1581.59056035894 214.617792525563  1581.18204376306 213.695887396455  L 1580.26778410531 214.101016114526  C 1580.66956691555 215.007725015177  1581.04868119198 215.924310248043  1581.40477355501 216.849917446656  L 1582.33808888919 216.490859669997  Z M 1583.66010643683 220.300493742261  C 1583.36136730518 219.337399869679  1583.03866272737 218.381903857198  1582.69229350245 217.434896340748  L 1581.7531396345 217.778393083561  C 1582.09379948033 218.709790596211  1582.41118475539 219.649536684724  1582.70499961886 220.596755393963  L 1583.66010643683 220.300493742261  Z M 1584.43694961975 223.028793013237  C 1584.2837697459 222.438778315353  1584.12170593267 221.851105837442  1583.95081339589 221.265975802029  L 1582.9909147081 221.546322924692  C 1583.26894647865 222.498293928291  1583.52320047372 223.457048865536  1583.75343969832 224.42169406279  L 1584.43694961975 223.028793013237  Z M 1537.43618809987 221.310620119802  C 1536.81154667199 222.098107523919  1536.19904679888 222.895149921064  1535.59890553244 223.701464862878  L 1536.40109446756 224.298535137122  C 1536.99511726136 223.500440619688  1537.60137266519 222.711524112838  1538.21964583997 221.932065185338  L 1537.43618809987 221.310620119802  Z M 1577.59260260775 223.437055350627  L 1585 228  L 1589.91864066416 220.823860786126  L 1577.59260260775 223.437055350627  Z " fill-rule="nonzero" fill="#6c6c6c" stroke="none" />
  </g>
</svg>