<?xml version="1.0" encoding="utf-8"?>
<svg version="1.1" xmlns:xlink="http://www.w3.org/1999/xlink" width="137px" height="26px" xmlns="http://www.w3.org/2000/svg">
  <defs>
    <mask fill="white" id="clip52">
      <path d="M 0 23.1111111111111  L 0 8.66666666666667  C 0 7.04888888888888  1.59999999999991 -6.16296296296297  3 6  L 134 6  C 135.68 5.77777777777778  137 7.04888888888888  137 8.66666666666667  L 137 23.1111111111111  C 137 24.7288888888889  135.68 26  134 26  L 3 26  C 1.31999999999994 26  0 24.7288888888889  0 23.1111111111111  Z " fill-rule="evenodd" />
    </mask>
  </defs>
  <g transform="matrix(1 0 0 1 -1263 -215 )">
    <path d="M 0 23.1111111111111  L 0 8.66666666666667  C 0 7.04888888888888  1.59999999999991 -6.16296296296297  3 6  L 134 6  C 135.68 5.77777777777778  137 7.04888888888888  137 8.66666666666667  L 137 23.1111111111111  C 137 24.7288888888889  135.68 26  134 26  L 3 26  C 1.31999999999994 26  0 24.7288888888889  0 23.1111111111111  Z " fill-rule="nonzero" fill="#dbdbdb" stroke="none" fill-opacity="0.92156862745098" transform="matrix(1 0 0 1 1263 215 )" />
    <path d="M 0 23.1111111111111  L 0 8.66666666666667  C 0 7.04888888888888  1.59999999999991 -6.16296296296297  3 6  L 134 6  C 135.68 5.77777777777778  137 7.04888888888888  137 8.66666666666667  L 137 23.1111111111111  C 137 24.7288888888889  135.68 26  134 26  L 3 26  C 1.31999999999994 26  0 24.7288888888889  0 23.1111111111111  Z " stroke-width="2" stroke="#797979" fill="none" transform="matrix(1 0 0 1 1263 215 )" mask="url(#clip52)" />
  </g>
</svg>