<?xml version="1.0" encoding="utf-8"?>
<svg version="1.1" xmlns:xlink="http://www.w3.org/1999/xlink" width="290px" height="110px" xmlns="http://www.w3.org/2000/svg">
  <defs>
    <mask fill="white" id="clip78">
      <path d="M 90 90  C 70.4000000000001 90  0 74.6  0 55  C 0 35.4  50.4000000000001 30  70 30  L 140 0  L 220 30  C 239.6 30  290 35.4  290 55  C 290 74.6  219.6 90  200 90  L 150 110  L 90 90  Z " fill-rule="evenodd" />
    </mask>
  </defs>
  <g transform="matrix(1 0 0 1 -1510 -680 )">
    <path d="M 90 90  C 70.4000000000001 90  0 74.6  0 55  C 0 35.4  50.4000000000001 30  70 30  L 140 0  L 220 30  C 239.6 30  290 35.4  290 55  C 290 74.6  219.6 90  200 90  L 150 110  L 90 90  Z " fill-rule="nonzero" fill="#169bd5" stroke="none" fill-opacity="0.835294117647059" transform="matrix(1 0 0 1 1510 680 )" />
    <path d="M 90 90  C 70.4000000000001 90  0 74.6  0 55  C 0 35.4  50.4000000000001 30  70 30  L 140 0  L 220 30  C 239.6 30  290 35.4  290 55  C 290 74.6  219.6 90  200 90  L 150 110  L 90 90  Z " stroke-width="2" stroke="#169bd5" fill="none" stroke-opacity="0.835294117647059" transform="matrix(1 0 0 1 1510 680 )" mask="url(#clip78)" />
  </g>
</svg>