<?xml version="1.0" encoding="utf-8"?>
<svg version="1.1" xmlns:xlink="http://www.w3.org/1999/xlink" width="548px" height="67px" xmlns="http://www.w3.org/2000/svg">
  <defs>
    <filter x="680px" y="33px" width="548px" height="67px" filterUnits="userSpaceOnUse" id="filter10">
      <feOffset dx="5" dy="5" in="SourceAlpha" result="shadowOffsetInner" />
      <feGaussianBlur stdDeviation="2.5" in="shadowOffsetInner" result="shadowGaussian" />
      <feComposite in2="shadowGaussian" operator="atop" in="SourceAlpha" result="shadowComposite" />
      <feColorMatrix type="matrix" values="0 0 0 0 0.0862745098039216  0 0 0 0 0.607843137254902  0 0 0 0 0.835294117647059  0 0 0 0.835294117647059 0  " in="shadowComposite" />
    </filter>
    <g id="widget11">
      <path d="M 681.5 38  A 3.5 3.5 0 0 1 685 34.5 L 1213 34.5  A 3.5 3.5 0 0 1 1216.5 38 L 1216.5 85  A 3.5 3.5 0 0 1 1213 88.5 L 685 88.5  A 3.5 3.5 0 0 1 681.5 85 L 681.5 38  Z " fill-rule="nonzero" fill="#169bd5" stroke="none" fill-opacity="0.835294117647059" />
      <path d="M 681 38  A 4 4 0 0 1 685 34 L 1213 34  A 4 4 0 0 1 1217 38 L 1217 85  A 4 4 0 0 1 1213 89 L 685 89  A 4 4 0 0 1 681 85 L 681 38  Z " stroke-width="2" stroke="#169bd5" fill="none" />
    </g>
  </defs>
  <g transform="matrix(1 0 0 1 -680 -33 )">
    <use xlink:href="#widget11" filter="url(#filter10)" />
    <use xlink:href="#widget11" />
  </g>
</svg>