<?xml version="1.0" encoding="utf-8"?>
<svg version="1.1" xmlns:xlink="http://www.w3.org/1999/xlink" width="593px" height="20px" xmlns="http://www.w3.org/2000/svg">
  <defs>
    <mask fill="white" id="clip93">
      <path d="M 0 20  L 0 0  L 161.120023305496 0  L 484.200000000001 0  L 593 0  L 593 20  L 355.399999999998 20  L 0 20  Z " fill-rule="evenodd" />
    </mask>
  </defs>
  <g transform="matrix(1 0 0 1 -1458 -325 )">
    <path d="M 0 20  L 0 0  L 161.120023305496 0  L 484.200000000001 0  L 593 0  L 593 20  L 355.399999999998 20  L 0 20  Z " fill-rule="nonzero" fill="#ffffff" stroke="none" fill-opacity="0" transform="matrix(1 0 0 1 1458 325 )" />
    <path d="M 0 20  L 0 0  L 161.120023305496 0  L 484.200000000001 0  L 593 0  L 593 20  L 355.399999999998 20  L 0 20  Z " stroke-width="2" stroke-dasharray="9,4" stroke="#ff00e9" fill="none" transform="matrix(1 0 0 1 1458 325 )" mask="url(#clip93)" />
  </g>
</svg>